<svg width="258" height="74" viewBox="0 0 258 74" fill="none" xmlns="http://www.w3.org/2000/svg">
<path d="M63.9739 18.7786V44.9078C63.9739 55.2784 55.5339 63.6863 45.1237 63.6863H43.217L33.4805 73.3795C33.0992 73.7594 32.5717 74 31.987 74C31.4467 74 30.9574 73.8037 30.5824 73.4745L30.4172 73.3099L30.4108 73.3036L20.7569 63.6863H18.8439C8.44003 63.6863 0 55.2784 0 44.9078V18.7786C0 8.40794 8.44003 0 18.8503 0H45.1237C55.5339 0 63.9739 8.40794 63.9739 18.7786Z" fill="#37C77F"/>
<path d="M28.3684 43.8957C28.6851 42.9232 28.1529 41.8735 27.1814 41.5552L27.1319 41.5392C26.1616 41.2217 25.1177 41.7477 24.7937 42.7105L21.8012 51.8123L25.3251 53.1528L28.3684 43.8957Z" fill="white"/>
<path d="M21.3361 41.2204C21.6529 40.2479 21.1206 39.1981 20.1491 38.8799L20.0996 38.8639C19.1244 38.5447 18.0744 39.0772 17.7561 40.0494L14.7677 49.1369L18.2915 50.4772L21.3361 41.2204Z" fill="white"/>
<path d="M35.4034 46.576C35.7201 45.6035 35.188 44.5539 34.2164 44.2356L34.1669 44.2195C33.1915 43.9002 32.1418 44.433 31.8234 45.4049L28.8364 54.4882L32.3611 55.8291L35.4034 46.576Z" fill="white"/>
<path d="M0 20.2851V46.971L7.62612 46.9976V20.2844L0 20.2851Z" fill="white"/>
<path d="M49.2217 20.2843L46.3487 12.8416L35.4964 12.8395L30.8516 21.9849L51.4254 47.003H52.6476V20.2843H49.2217Z" fill="white"/>
<path d="M31.2909 12.8386L18.2459 12.836L14.8559 20.2835L11.3751 20.2839V47.4492L14.1931 38.8799C15.1541 35.9459 18.326 34.3381 21.2619 35.2984L21.3125 35.3147C22.767 35.7912 23.8946 36.8089 24.5472 38.0707C25.7081 37.6247 27.023 37.5584 28.294 37.9739L28.3446 37.9902C29.801 38.4674 30.9296 39.4869 31.582 40.7511C32.7429 40.3051 34.0577 40.2387 35.3289 40.6542L35.3795 40.6706C38.3192 41.6336 39.9269 44.8055 38.9671 47.7424L38.9661 47.7456L35.8697 57.1637L47.7957 47.886L26.3826 22.503L31.2909 12.8386Z" fill="white"/>
<path d="M56.3966 20.2843H64V47.003H56.3966V20.2843Z" fill="white"/>
<path d="M114.376 20.872C116.125 20.872 117.512 21.3413 118.536 22.28C119.56 23.2187 120.072 24.4987 120.072 26.12V48.264C120.072 49.7573 119.539 50.9947 118.472 51.976C117.405 52.9147 116.019 53.384 114.312 53.384C112.776 53.384 111.517 52.9787 110.536 52.168C109.555 51.3147 109.043 50.184 109 48.776C108.019 50.312 106.76 51.4853 105.224 52.296C103.731 53.1067 102.003 53.512 100.04 53.512C95.9867 53.512 92.9787 52.4027 91.016 50.184C89.0533 47.9227 88.072 44.5093 88.072 39.944V26.12C88.072 24.4987 88.584 23.2187 89.608 22.28C90.632 21.3413 92.0187 20.872 93.768 20.872C95.5173 20.872 96.904 21.3413 97.928 22.28C98.952 23.2187 99.464 24.4987 99.464 26.12V40.2C99.464 43.272 100.787 44.808 103.432 44.808C104.968 44.808 106.227 44.2533 107.208 43.144C108.189 42.0347 108.68 40.584 108.68 38.792V26.12C108.68 24.4987 109.192 23.2187 110.216 22.28C111.24 21.3413 112.627 20.872 114.376 20.872ZM147.887 20.744C151.642 20.744 154.436 21.8747 156.271 24.136C158.106 26.3547 159.023 29.7467 159.023 34.312V48.136C159.023 49.7573 158.511 51.0373 157.487 51.976C156.463 52.9147 155.076 53.384 153.327 53.384C151.578 53.384 150.191 52.9147 149.167 51.976C148.143 51.0373 147.631 49.7573 147.631 48.136V34.824C147.631 32.9467 147.29 31.5813 146.607 30.728C145.967 29.8747 144.986 29.448 143.663 29.448C141.956 29.448 140.591 30.0027 139.567 31.112C138.586 32.1787 138.095 33.6293 138.095 35.464V48.136C138.095 49.7573 137.583 51.0373 136.559 51.976C135.535 52.9147 134.148 53.384 132.399 53.384C130.65 53.384 129.263 52.9147 128.239 51.976C127.215 51.0373 126.703 49.7573 126.703 48.136V25.992C126.703 24.4987 127.236 23.2827 128.303 22.344C129.37 21.3627 130.756 20.872 132.463 20.872C134.084 20.872 135.364 21.32 136.303 22.216C137.284 23.112 137.775 24.2853 137.775 25.736C138.884 24.1147 140.314 22.8773 142.063 22.024C143.812 21.1707 145.754 20.744 147.887 20.744ZM171.149 53.384C169.528 53.384 168.162 52.9573 167.053 52.104C165.986 51.208 165.453 49.8853 165.453 48.136V26.12C165.453 24.3707 165.986 23.0693 167.053 22.216C168.162 21.32 169.528 20.872 171.149 20.872C172.77 20.872 174.114 21.32 175.181 22.216C176.29 23.0693 176.845 24.3707 176.845 26.12V48.136C176.845 49.8853 176.29 51.208 175.181 52.104C174.114 52.9573 172.77 53.384 171.149 53.384ZM171.149 16.392C169.229 16.392 167.693 15.9013 166.541 14.92C165.432 13.896 164.877 12.552 164.877 10.888C164.877 9.224 165.432 7.90133 166.541 6.92C167.693 5.93866 169.229 5.448 171.149 5.448C173.026 5.448 174.541 5.93866 175.693 6.92C176.845 7.90133 177.421 9.224 177.421 10.888C177.421 12.552 176.845 13.896 175.693 14.92C174.584 15.9013 173.069 16.392 171.149 16.392ZM199.325 53.512C195.869 53.512 192.818 52.8507 190.173 51.528C187.57 50.1627 185.544 48.2427 184.093 45.768C182.685 43.2933 181.981 40.392 181.981 37.064C181.981 33.736 182.685 30.856 184.093 28.424C185.544 25.9493 187.57 24.0507 190.173 22.728C192.776 21.4053 195.826 20.744 199.325 20.744C202.824 20.744 205.874 21.4053 208.477 22.728C211.08 24.0507 213.085 25.9493 214.493 28.424C215.944 30.856 216.669 33.736 216.669 37.064C216.669 40.392 215.944 43.2933 214.493 45.768C213.085 48.2427 211.08 50.1627 208.477 51.528C205.874 52.8507 202.824 53.512 199.325 53.512ZM199.325 45C203.378 45 205.405 42.3547 205.405 37.064C205.405 31.7733 203.378 29.128 199.325 29.128C195.272 29.128 193.245 31.7733 193.245 37.064C193.245 42.3547 195.272 45 199.325 45ZM243.012 20.744C246.767 20.744 249.561 21.8747 251.396 24.136C253.231 26.3547 254.148 29.7467 254.148 34.312V48.136C254.148 49.7573 253.636 51.0373 252.612 51.976C251.588 52.9147 250.201 53.384 248.452 53.384C246.703 53.384 245.316 52.9147 244.292 51.976C243.268 51.0373 242.756 49.7573 242.756 48.136V34.824C242.756 32.9467 242.415 31.5813 241.732 30.728C241.092 29.8747 240.111 29.448 238.788 29.448C237.081 29.448 235.716 30.0027 234.692 31.112C233.711 32.1787 233.22 33.6293 233.22 35.464V48.136C233.22 49.7573 232.708 51.0373 231.684 51.976C230.66 52.9147 229.273 53.384 227.524 53.384C225.775 53.384 224.388 52.9147 223.364 51.976C222.34 51.0373 221.828 49.7573 221.828 48.136V25.992C221.828 24.4987 222.361 23.2827 223.428 22.344C224.495 21.3627 225.881 20.872 227.588 20.872C229.209 20.872 230.489 21.32 231.428 22.216C232.409 23.112 232.9 24.2853 232.9 25.736C234.009 24.1147 235.439 22.8773 237.188 22.024C238.937 21.1707 240.879 20.744 243.012 20.744Z" fill="#15C3D6"/>
</svg>
