<svg width="749" height="600" viewBox="0 0 749 600" fill="none" xmlns="http://www.w3.org/2000/svg">
<g clip-path="url(#clip0)">
<path d="M130.343 74.0398C115.202 77.9104 99.3728 92.1633 99.2755 106.278C90.5279 95.2088 65.2714 95.241 50.9551 101.514C13.1773 118.069 14.9264 166 41.4291 189.512C55.6934 202.166 73.1561 211.512 91.2969 219.057C106.489 225.374 144.046 236.935 144.112 236.829C144.229 236.873 166.741 204.626 174.839 190.288C184.508 173.168 192.537 155.043 196.011 136.281C202.466 101.42 170.298 63.826 130.343 74.0398" fill="#B92152"/>
<path d="M450.678 276.39C450.678 276.39 405.91 298.317 392.44 290.137C390.73 289.098 350.817 273.27 350.817 273.27L342.598 282.447L388.436 313.775L403.671 316.363L442.159 305.317L450.678 276.39Z" fill="#E77889"/>
<path d="M480.41 280.383C480.41 280.383 506.281 323.036 522.03 323.427C524.029 323.478 566.162 331.722 566.162 331.722L568.135 343.89L512.661 345.492L498.439 339.438L471.991 309.339L480.41 280.383" fill="#E77889"/>
<path d="M474.734 277.176C474.927 277.248 475.118 277.32 475.306 277.393C484.378 280.907 491.526 296.738 495.622 306.041C506.197 330.055 510.844 355.091 511.73 381.649C512.207 395.95 512.065 410.276 511.639 424.587C511.521 428.541 508.163 463.944 509.916 464.786C491.944 456.149 473.673 447.992 454.55 443.079C435.427 438.165 415.316 436.576 396.018 441.121C401.805 396.179 410.23 350.446 422.422 307.008C423.88 301.813 424.851 296.275 427.018 291.35C429.512 285.677 433.27 283.997 438.016 280.638C439.642 279.487 441.28 278.329 443.068 277.525C452.493 273.288 465.18 273.651 474.734 277.176" fill="#E77889"/>
<path d="M502.62 418.547L482.199 502.218L481.854 563.863L471.867 566.044L467.856 508.721L457.851 403.746L502.62 418.547Z" fill="#E0BD9D"/>
<path d="M471.743 567.772L470.142 574.028L471.581 586.293L479.677 586.292L482.676 568.554L481.731 565.591L471.743 567.772" fill="#463F3E"/>
<path d="M424.035 409.457L422.355 481.726L432.18 583.773L442.044 584.478L445.413 490.902L465.341 406.039L424.035 409.457" fill="#E0BD9D"/>
<path d="M432.485 582.067L419.212 589.156L420.278 595.368L443.743 592.444L442.598 583.504L432.485 582.067Z" fill="#463F3E"/>
<path d="M421.161 418.787L414.632 502.292L421.541 559.538L448.256 557.972L452.896 492.865L464.317 421.87L462.502 410.824L423.997 411.461L421.161 418.787" fill="#9499A0"/>
<path d="M461.812 496.127L465.064 556.009L488.285 554.772L487.706 497.978L502.217 426.625L498.838 406.695L459.784 409.202L461.812 496.127" fill="#9499A0"/>
<path d="M407.441 420.303C431.352 423.913 471.135 426.63 495.045 430.239C496.252 386.959 491.903 336.987 481.397 295.125C479.492 287.533 476.681 279.337 470.046 275.481C462.936 271.348 447.875 271.94 443.556 280.001C437.237 291.795 436.021 310.551 433.216 323.669C426.87 353.346 411.349 390.198 407.441 420.303Z" fill="white"/>
<path d="M444.548 241.882C450.856 225.014 472.093 231.792 475.899 246.993C478.404 257.006 470.388 269.81 460.331 272.278C460.525 274.754 460.615 277.237 460.597 279.72C457.906 279.441 455.214 279.162 452.524 278.883C451.69 278.796 450.724 278.623 450.337 277.88C450.102 277.431 450.155 276.89 450.214 276.386C450.413 274.686 450.611 272.986 450.809 271.286C450.617 271.193 450.424 271.097 450.231 270.995C445.458 268.455 442.602 263.13 441.968 257.755C441.335 252.379 442.653 246.951 444.548 241.882" fill="#DFBC9C"/>
<path d="M445.973 247.003C442.377 251.81 443.062 258.444 443.708 264.133C444.281 269.179 444.031 272.289 438.494 271.754C435.374 271.452 429.82 270.977 428.017 267.907C426.652 265.583 429.462 260.745 431.085 258.992C432.324 257.653 434.483 257.483 435.686 256.113C436.183 255.548 436.466 254.829 436.713 254.119C437.723 251.217 438.29 248.162 438.394 245.091C438.462 243.005 438.321 240.887 438.807 238.857C439.512 235.916 442.64 233.256 444.575 230.982C448.175 226.751 457.229 222.484 461.709 228.241C462.728 229.552 463 231.283 463.159 232.938C463.253 233.925 463.317 234.944 463.015 235.889C461.811 239.658 458.177 239.151 455.22 240.148C451.572 241.38 448.267 243.934 445.973 247.003Z" fill="#463F3E"/>
<path d="M472.896 256.957C472.227 259.686 469.851 262.177 470.569 264.894C470.888 266.104 471.779 267.063 472.452 268.119C474.29 271.002 474.45 274.876 472.858 277.902C478.241 279.469 483.624 281.035 489.009 282.602C489.82 282.839 490.675 283.077 491.5 282.889C493.261 282.488 494.024 280.451 494.5 278.705C495.434 275.267 496.361 271.562 495.142 268.215C494.577 266.664 493.578 265.297 493.018 263.743C490.324 256.271 498.341 247.399 494.312 240.554C492.515 237.5 488.897 236.112 486.221 233.791C481.554 229.744 479.866 222.941 474.947 219.206C465.658 212.151 451.26 221.556 454.36 232.971C456.889 242.279 475.592 245.966 472.896 256.957" fill="#463F3E"/>
<path d="M474.062 278.471C474.062 278.471 481.867 385.92 465.244 407.14C448.619 428.36 441.507 436.358 441.507 436.358L509.853 464.781C509.853 464.781 508.077 308.083 474.062 278.471Z" fill="#E77889"/>
<path d="M280.722 275.185C280.722 275.185 240.302 304.378 225.644 298.595C223.783 297.861 181.772 289.02 181.772 289.02L175.221 299.457L225.689 322.571L241.143 322.542L277.211 305.138L280.722 275.185" fill="white"/>
<path d="M162.94 237.446C162.94 237.446 169.17 240.566 170.266 256.987C171.362 273.407 175.191 283.481 175.191 283.481C175.191 283.481 170.304 287.188 165.786 285.604C161.268 284.02 159.671 283.859 159.705 277.081C159.739 270.301 155.789 238.899 155.789 238.899L162.94 237.446" fill="#554036"/>
<path d="M151.102 245.75C157.486 246.043 163.476 250.555 165.535 256.623C168.131 252.811 168.747 247.718 167.136 243.391C165.527 239.065 161.732 235.62 157.281 234.44C154 237.266 151.899 241.43 151.573 245.756L151.102 245.75" fill="#554036"/>
<path d="M143.441 284.603L102.492 285.386L88.0905 219.039L74.5223 220.951V302.182L98.6596 313.813L142.756 320.106L143.441 284.603" fill="#E3C367"/>
<path d="M125.091 579.296L124.374 585.129L134.805 592.649L141.097 587.659L136.239 580.982L125.809 573.462L125.091 579.296" fill="#302724"/>
<path d="M129.237 400.57L127.057 418.285L141.613 479.629L124.739 577.328L135.511 581.315L166.21 486.241L171.357 458.501L172.472 399.562L129.237 400.57Z" fill="#4E5158"/>
<path d="M212.288 422.175L185.891 585.925L175.513 585.698L175.932 480.376L158.649 406.07L212.288 422.175Z" fill="#4E5158"/>
<path d="M175.601 584.401L175.473 590.301L186.567 596.445L192.306 590.668L186.823 584.645L175.601 584.401Z" fill="#302724"/>
<path d="M122.97 404.029C131.955 351.369 129.991 312.834 130.627 302.278C131.263 291.722 138.61 286.397 138.614 286.396C141.801 285.74 144.607 283.705 147.828 282.948C169.618 277.827 181.068 295.057 188.782 313.539C198.286 336.312 206.176 359.801 212.448 383.725C217.952 404.721 223.465 425.906 225.494 447.616C226.33 456.574 227.006 465.066 217.384 468.8C202.051 474.751 184.977 474.242 168.882 475.906C150.394 477.818 131.896 479.107 113.318 479.494C103.62 479.697 113.986 456.69 122.97 404.029" fill="#E3C367"/>
<path d="M79.2862 220.425L71.3389 212.103L74.4175 197.845L82.2582 198.016L84.2945 210.537L88.2216 213.018L88.0905 219.039L79.2862 220.425" fill="#DFBC9C"/>
<path d="M158.348 282.093L179.024 286.24L220.567 328.269L269.96 327.497L272.397 342.799L214.519 351.704L167.673 320.187L158.348 282.093" fill="#E3C367"/>
<path d="M163.44 283.307L166.041 339.573L138.435 285.54L146.89 282.723L152.922 281.053L163.44 283.307Z" fill="white"/>
<path d="M270.427 331.312L279.629 325.859L291.223 329.031L291.088 335.284L271.577 338.532L270.427 331.312Z" fill="#DFBC9C"/>
<path d="M165.152 251.07C158.341 235.32 138.487 242.79 135.608 257.439C133.971 265.77 138.085 280.399 148.053 280.753C148.524 282.177 149.327 284.865 150.656 285.588C152.096 286.37 155.658 284.511 157.065 283.831C157.455 283.643 157.858 283.427 158.089 283.06C158.378 282.6 158.215 281.581 157.971 280.465C159.044 280.145 160.111 279.68 161.163 279.049C165.576 276.403 168.032 271.198 168.373 266.052C168.714 260.906 167.199 255.803 165.152 251.07" fill="#DFBC9C"/>
<path d="M156.877 234.487C156.877 234.487 160.866 242.962 150.039 248.011C139.212 253.059 133.826 263.651 137.912 272.625C141.997 281.599 151.975 286.639 148.077 290.123C144.18 293.607 127.287 294.817 127.287 294.817C127.287 294.817 109.909 263.843 120.037 246.45C130.166 229.059 149.36 224.205 156.877 234.487" fill="#554036"/>
<path d="M548.076 136.469C548.076 136.469 530.363 156.743 522.916 212.887L537.579 215.338C537.579 215.338 540.948 165.77 555.463 139.822L548.076 136.469Z" fill="#644F50"/>
<path d="M634.849 65.2467C634.849 65.2467 583.743 66.1226 561.284 85.9666C538.826 105.811 548.852 141.236 548.852 141.236C548.852 141.236 582.707 155.604 605.165 135.76C627.623 115.916 634.849 65.2467 634.849 65.2467Z" fill="#43BE95"/>
<path d="M548.853 141.236C548.853 141.236 550.806 142.06 554.062 143.04L602.915 93.4637L547.712 135.835C548.278 139.193 548.853 141.236 548.853 141.236Z" fill="#527E73"/>
<path d="M469.922 85.704C469.922 85.704 470.876 131.372 488.639 151.373C506.401 171.376 537.94 162.296 537.94 162.296C537.94 162.296 550.63 131.994 532.867 111.992C515.105 91.9897 469.922 85.704 469.922 85.704Z" fill="#43BE95"/>
<path d="M537.939 162.296C537.939 162.296 538.668 160.548 539.53 157.634L495.18 114.146L533.129 163.333C536.119 162.817 537.939 162.296 537.939 162.296" fill="#527E73"/>
<path d="M548.853 141.236C548.853 141.236 604.255 140.531 626.158 100.015C626.158 100.015 610.114 166.428 548.853 141.236" fill="#489887"/>
<path d="M435.385 587.946L421.211 595.254L413.997 588.2L421.042 580.976L435.301 580.807L435.385 587.946Z" fill="#3C435F"/>
<path d="M330.682 286.206L319.331 278.917L322.23 273.924L331.107 277.192L331.383 274.193L340.337 281.614L338.023 287.212L330.682 286.206" fill="#D3BD9C"/>
<path d="M272.68 587.608L272.374 593.807L284.448 600.621L290.945 594.729L285.061 588.223L272.987 581.409L272.68 587.608Z" fill="#4E5158"/>
<path d="M262.494 399.52L261.562 418.346L282.592 501.171L272.131 585.578L284.29 588.647L317.838 487.193L318.387 456.681L309.887 393.975L262.494 399.52Z" fill="#314464"/>
<path d="M354.924 397.567L364.426 476.217L360.683 579.376L349.287 580.622L331.868 487.72L306.052 395.736L354.924 397.567Z" fill="#314464"/>
<path d="M349.878 585.427L362.874 590.249L368.362 583.405L361.527 577.909L349.204 579.258L349.878 585.427" fill="#4E5158"/>
<path d="M359.502 384.461C347.719 360.548 342.983 334.313 336.785 308.507C334.953 300.894 333.053 293.116 328.81 286.538C323.937 278.985 317.219 275.609 309.781 274.32C300.316 272.679 289.685 274.419 280.212 275.23C274.513 293.174 270.761 283.006 264.063 300.599C262.674 304.246 258.773 335.818 257.31 339.436V339.437C257.31 339.437 241.935 387.967 246.957 426.319C247.007 426.698 247.049 427.068 247.094 427.44C248.093 427.61 249.05 427.782 249.946 427.961C263.303 430.643 276.926 432.078 290.554 431.875C302.644 431.695 314.73 430.205 326.465 427.276C342.529 423.265 361.614 424.856 374.733 414.227C370.867 406.379 363.369 392.309 359.502 384.461" fill="white"/>
<path d="M366.18 204.937L365.661 191.445L359.893 191.416L358.205 200.734L355.483 199.453L357.333 210.944L363.325 211.784L366.18 204.937" fill="#D3BD9C"/>
<path d="M311.069 273.421L345.456 247.343L357.333 210.944L365.337 211.434L369.606 253.564L332.992 305.846L311.069 273.421" fill="white"/>
<path d="M272.632 244.238C277.439 229.022 299.444 223.45 304.813 240.985C306.426 246.255 307.431 251.855 306.454 257.279C305.478 262.703 302.246 267.939 297.237 270.224C297.208 270.237 297.18 270.248 297.152 270.261C297.367 271.662 297.582 273.064 297.798 274.465C297.845 274.766 297.884 275.098 297.718 275.353C297.529 275.645 297.147 275.725 296.806 275.781C295.135 276.054 293.465 276.326 291.794 276.599C290.967 276.734 290.104 276.867 289.302 276.622C287.545 276.084 286.79 273.996 286.688 272.16C286.665 271.721 286.662 271.277 286.663 270.832C276.711 267.568 269.489 254.184 272.632 244.238" fill="#AA8F67"/>
<path d="M303 219.228C307.081 219.012 310.139 223.244 313.658 225.649C316.585 227.649 320.045 228.433 323.113 230.152C326.181 231.871 329.049 235.123 328.767 238.826C332.171 237.444 335.849 236.042 339.419 237.089C342.989 238.136 345.952 242.802 344.165 246.249C342.563 249.333 338.312 249.692 336.623 252.718C333.95 257.505 339.163 265.827 334.791 268.756C333.739 269.46 332.393 269.527 331.357 270.255C330.07 271.161 329.522 272.875 328.844 274.379C325.774 281.2 318.242 285.132 311.321 283.525C307.156 281.066 304.081 276.512 302.981 271.529C301.657 265.522 304.964 263.782 306.007 258.361C307.147 252.435 305.848 245.922 302.527 240.921C300.366 237.667 297.112 234.73 293.445 234.025C291.955 233.739 292.309 235.041 290.728 233.714C290.049 233.145 289.237 231.16 289.117 230.234C293.473 227.358 297.63 219.515 303 219.228" fill="#3E353B"/>
<path d="M259.651 222.623C257.52 223.005 255.275 222.707 253.215 223.387C250.119 224.41 250.007 227.514 248.913 230.117C247.7 232.998 245.97 236.856 243.795 238.979C242.229 240.51 240.165 241.272 238.327 242.393C236.488 243.514 234.73 245.261 234.548 247.579C234.374 249.776 235.661 251.885 235.669 254.096C235.622 257.387 234.9 259.006 235.59 262.438C235.945 264.21 236.353 266.089 237.533 267.386C239.088 269.096 241.514 269.296 243.676 269.141C245.838 268.987 248.093 268.605 250.125 269.511C254.531 271.475 253.245 276.004 254.091 279.982C255.378 286.035 261.861 290.112 267.266 288.516C271.85 287.162 274.892 282.271 275.172 277.185C275.311 274.638 274.526 272.178 274.694 269.631C274.855 267.175 276.555 263.914 274.522 261.76C274.026 261.235 273.358 260.919 272.924 260.334C272.573 259.86 272.41 259.255 272.329 258.658C272.049 256.59 272.703 254.423 274.042 252.987C275.003 251.954 276.308 251.257 276.96 249.962C277.707 248.48 277.402 246.634 277.461 244.923C277.604 240.786 280.233 236.966 283.805 235.702C286.159 234.869 288.249 234.444 290.371 233.039C290.694 232.825 295.554 229.283 295.588 230.151C295.529 228.639 294.782 227.251 294.014 225.97C292.751 223.863 291.324 221.793 289.394 220.42C283.154 215.982 281.996 224.812 276.808 223.144C275.557 222.741 274.705 221.476 273.621 220.667C271.573 219.138 268.86 219.357 266.543 220.138C264.227 220.919 262.052 222.194 259.651 222.623" fill="#3E353B"/>
<path d="M209.51 494.115L341.099 545.022L485.316 496.794L362.959 449.399L209.51 494.115Z" fill="#958073"/>
<path d="M445.876 502.034C445.932 471.791 421.494 447.228 391.291 447.171C361.088 447.114 336.558 471.586 336.502 501.828C336.445 532.072 360.883 556.634 391.086 556.691C421.289 556.749 445.819 532.277 445.876 502.034Z" fill="#EBEBEC"/>
<path d="M426.759 468.984L428.032 468.032C427.773 467.685 421.559 459.482 409.277 454.737L408.705 456.221C420.564 460.803 426.698 468.902 426.759 468.984Z" fill="#515051"/>
<path d="M355.41 468.85C355.472 468.768 361.661 460.682 373.511 456.155L372.944 454.669C360.645 459.369 354.4 467.548 354.141 467.893L355.41 468.85Z" fill="#515051"/>
<path d="M431.223 531.159C434.958 527.177 437.909 520.829 439.992 512.289C441.534 505.969 442 500.724 442.005 500.671L440.423 500.533C440.406 500.738 438.55 521.026 430.066 530.069L431.223 531.159Z" fill="#515051"/>
<path d="M350.882 531.008L352.044 529.923C343.588 520.842 341.815 500.553 341.798 500.348L340.215 500.481C340.219 500.532 340.667 505.78 342.184 512.105C344.236 520.653 347.162 527.013 350.882 531.008" fill="#515051"/>
<path d="M390.102 552.273C397.237 552.287 402.866 550.936 403.218 550.851L402.841 549.306C402.714 549.337 390.027 552.374 378.78 549.266L378.358 550.798C382.327 551.895 386.416 552.267 390.102 552.273Z" fill="#515051"/>
<path d="M391.207 481.413L409.781 494.979L402.636 516.86L379.646 516.816L372.583 494.909L391.207 481.413" fill="#3A3637"/>
<path d="M391.229 469.56L372.656 455.994L379.801 434.112L402.791 434.156L409.854 456.063L391.229 469.56Z" fill="#3A3637"/>
<path d="M408.552 528.714L431.54 529.039L438.335 551.031L419.547 564.298L401.14 550.506L408.552 528.714" fill="#3A3637"/>
<path d="M410.209 533.877L411.631 533.169L400.653 511.082L399.232 511.791L410.209 533.877Z" fill="#3A3637"/>
<path d="M421.316 490.308L426.568 467.896L449.477 465.973L458.385 487.195L440.979 502.236L421.316 490.308Z" fill="#3A3637"/>
<path d="M405.228 498.049L427.83 488.23L427.198 486.771L404.596 496.59L405.228 498.049Z" fill="#3A3637"/>
<path d="M373.572 528.934L350.583 529.172L343.705 551.14L362.444 564.477L380.902 550.754L373.572 528.934Z" fill="#3A3637"/>
<path d="M371.895 534.091L382.955 512.046L381.536 511.332L370.476 533.377L371.895 534.091Z" fill="#3A3637"/>
<path d="M360.762 490.328L355.263 467.974L332.334 466.301L323.66 487.621L341.229 502.47L360.762 490.328" fill="#3A3637"/>
<path d="M376.933 497.89L377.549 496.425L354.84 486.855L354.224 488.321L376.933 497.89Z" fill="#3A3637"/>
<path d="M390.409 484.042L391.997 484.045L392.045 458.057L390.457 458.055L390.409 484.042Z" fill="#3A3637"/>
<path d="M340.894 654.189L209.335 587.527L209.51 494.007L341.048 544.926L340.894 654.189" fill="#958073"/>
<path d="M340.894 654.189L485.14 590.652L485.316 496.761L341.048 544.926L340.894 654.189Z" fill="#BAA391"/>
<path d="M329.621 470.73C323.162 472.799 319.6 479.719 321.667 486.188C323.733 492.656 330.644 496.222 337.103 494.153L354.054 488.723C360.513 486.655 364.074 479.734 362.009 473.267C359.942 466.798 353.031 463.232 346.572 465.302L329.621 470.73" fill="#71533B"/>
<path d="M347.571 510.414C340.263 506.643 331.285 509.519 327.519 516.837C323.753 524.155 326.625 533.144 333.933 536.916L353.111 546.811C360.419 550.582 369.397 547.706 373.162 540.388C376.929 533.071 374.056 524.081 366.749 520.31L347.571 510.414Z" fill="#71533B"/>
<path d="M284.731 530.542C288.498 523.223 297.475 520.348 304.783 524.119C312.091 527.89 314.963 536.88 311.197 544.198L301.315 563.401C297.548 570.72 288.571 573.594 281.263 569.823C273.955 566.053 271.083 557.063 274.849 549.745L284.731 530.542Z" fill="#71533B"/>
<path d="M258.302 493.574C251.842 495.643 248.281 502.563 250.347 509.032C252.413 515.499 259.324 519.065 265.784 516.996L282.734 511.567C289.193 509.497 292.754 502.577 290.688 496.11C288.622 489.642 281.711 486.076 275.251 488.145L258.302 493.574Z" fill="#71533B"/>
<path d="M282.528 527.429C288.273 545.412 307.487 555.325 325.445 549.573C343.404 543.821 353.306 524.581 347.561 506.599L343.76 494.702C338.016 476.72 318.802 466.806 300.843 472.558C282.885 478.31 272.983 497.55 278.727 515.532L282.528 527.429" fill="#71533B"/>
<path d="M259.715 464.971C265.918 484.388 286.667 495.094 306.058 488.883C325.449 482.671 336.141 461.896 329.938 442.478C323.735 423.061 302.987 412.355 283.596 418.566C264.204 424.777 253.513 445.553 259.715 464.971" fill="#71533B"/>
<path d="M295.495 455.814C308.055 451.791 321.182 454.868 330.559 462.809C327.526 474.726 318.618 484.86 306.058 488.883C293.499 492.906 280.371 489.83 270.993 481.888C274.027 469.971 282.935 459.837 295.495 455.814Z" fill="#DFBC9C"/>
<path d="M300.84 428.79C303.739 437.863 313.435 442.866 322.496 439.963C331.558 437.061 336.554 427.353 333.656 418.279C330.756 409.205 321.061 404.203 311.999 407.104C302.937 410.007 297.942 419.715 300.84 428.79" fill="#71533B"/>
<path d="M242.663 447.423C245.562 456.497 255.258 461.5 264.319 458.597C273.381 455.695 278.377 445.986 275.479 436.913C272.58 427.839 262.884 422.836 253.823 425.738C244.761 428.641 239.765 438.35 242.663 447.423" fill="#71533B"/>
<path d="M306.484 444.067C307.118 446.053 309.24 447.148 311.223 446.513C313.206 445.877 314.299 443.753 313.665 441.767C313.031 439.782 310.909 438.687 308.926 439.322C306.942 439.957 305.849 442.081 306.484 444.067Z" fill="#211E20"/>
<path d="M272.556 454.934C273.19 456.919 275.312 458.015 277.295 457.379C279.278 456.744 280.371 454.619 279.737 452.634C279.103 450.648 276.981 449.554 274.998 450.189C273.015 450.824 271.921 452.949 272.556 454.934Z" fill="#211E20"/>
<path d="M288.821 471.32C289.362 470.27 290.65 469.857 291.698 470.398C293.805 471.485 296.097 471.848 298.288 471.577L295.576 463.085C290.852 461.58 289.989 458.206 289.989 458.206C289.445 456.503 290.325 454.503 292.026 453.957L297.246 452.285C298.946 451.741 300.822 452.858 301.366 454.561C301.368 454.57 301.371 454.579 301.374 454.588C301.485 454.905 302.46 458.021 299.643 461.781L302.356 470.275C304.298 469.222 305.954 467.594 307.04 465.484C307.58 464.434 308.868 464.023 309.916 464.563C310.964 465.105 311.376 466.394 310.836 467.443C308.859 471.287 305.504 473.966 301.684 475.19C297.864 476.414 293.579 476.18 289.742 474.2C288.693 473.66 288.281 472.369 288.821 471.32" fill="#5D3D26"/>
<path d="M320.89 416.049C325.209 418.78 326.501 424.501 323.774 428.827L308.128 418.938C310.855 414.611 316.569 413.318 320.89 416.049" fill="#E3A7B1"/>
<path d="M251.767 438.189C253.703 433.454 259.104 431.187 263.833 433.124L256.824 450.27C252.095 448.332 249.831 442.923 251.767 438.189Z" fill="#E3A7B1"/>
<path d="M341.048 544.926L366.7 589.035L506.713 533.686L485.192 496.76L341.048 544.926Z" fill="#D6BBAA"/>
<path d="M185.867 523.398L310.826 582.873L341.048 544.926L209.372 494.007L185.867 523.398" fill="#BAA391"/>
<path d="M526.907 215.538L518.958 207.216L522.037 192.958L529.878 193.129L531.913 205.65L535.84 208.131L535.71 214.152L526.907 215.538" fill="#DFBC9C"/>
<path d="M585.154 289.162C589.091 288.983 593.028 288.804 596.965 288.625C597.17 285.486 597.125 282.33 596.831 279.197C596.867 279.577 603.161 276.24 603.717 275.484C605.318 273.308 605.497 269.66 606.161 267.075C607.572 261.567 608.897 255.366 605.982 250.487C602.964 245.433 596.452 243.713 590.573 243.57C583.192 243.391 574.954 245.562 571.171 251.91C567.754 257.644 572.095 266.084 573.341 272.139C573.955 275.124 574.891 278.531 577.665 279.786C579.137 280.453 580.921 280.378 582.238 281.318C584.556 282.977 584.042 286.535 585.154 289.162" fill="#DFBC9C"/>
<path d="M559.521 240.98C559.074 236.896 558.628 232.811 558.181 228.727C558.016 227.209 557.856 225.636 558.343 224.189C559.153 221.785 561.587 220.28 564.032 219.612C566.477 218.945 569.053 218.914 571.528 218.364C574.168 217.777 576.734 216.594 579.437 216.707C584.577 216.925 588.52 221.69 593.6 222.494C600.636 223.606 607.089 220.368 611.352 228.649C612.135 230.17 612.353 231.922 613.045 233.488C613.938 235.51 615.559 237.104 616.827 238.913C622.402 246.872 620.627 258.969 613.899 265.735C610.637 269.016 609.306 271.981 604.805 273.039C606.859 268.838 604.105 252.124 598.456 250.258C596.96 249.765 592.471 251.605 590.816 251.85C587.148 252.394 583.583 252.99 580.134 254.428C575.016 256.562 569.457 258.078 563.915 258.502C563.206 258.556 562.412 258.584 561.876 258.117C561.372 257.677 561.266 256.945 561.193 256.279C560.636 251.18 560.078 246.08 559.521 240.98" fill="#302724"/>
<path d="M648.281 590.431L649.877 597.088L638.177 606.941L629.932 601.882L634.985 593.627L646.686 583.774L648.281 590.431" fill="#302724"/>
<path d="M620.999 384.459L625.845 404.676L619.925 498.757L648.463 588.119L635.908 593.929L578.87 490.806L572.058 457.842L568.494 388.131L620.999 384.459" fill="#968B72"/>
<path d="M542.271 392.627L541.426 480.011L558.081 592.648L570.725 592.624L578.517 488.65L595.626 384.658L542.271 392.627" fill="#968B72"/>
<path d="M570.651 591.117L570.663 597.963L557.002 604.835L550.152 598.002L556.976 591.143L570.651 591.117" fill="#302724"/>
<path d="M636.087 409.165C636.276 417.137 636.045 427.882 632.988 428.281C632.414 428.355 631.865 428.073 631.364 427.8C626.069 424.918 622.319 420.855 617.1 418.072C611.63 415.153 605.375 413.609 599.243 412.532C590.074 410.872 580.701 409.85 571.36 409.703C564.018 409.589 556.642 410.229 549.33 410.852C543.249 411.37 537.592 413.186 531.394 412.768C525.042 412.338 518.782 410.403 513.346 407.071C513.147 406.95 512.936 406.811 512.853 406.592C512.764 406.353 512.85 406.087 512.937 405.847C514.227 402.285 515.154 398.758 517.504 395.805C520.129 392.508 521.99 388.321 523.885 384.571C527.834 376.753 531.551 368.56 534.305 360.235C538.469 348.918 543.231 337.894 547.255 326.539C550.045 318.669 552.588 310.659 556.379 303.196C559.348 297.353 564.643 288.813 571.035 286.231C573.199 285.357 575.587 285.273 577.919 285.202C584.994 284.986 592.067 284.768 599.14 284.552C601.72 284.473 604.402 284.413 606.755 285.473C610.281 287.061 612.28 290.762 614.027 294.216C621.863 309.7 626.871 326.402 629.692 343.63C631.164 352.625 632.528 361.638 633.592 370.686C634.781 380.783 635.603 390.926 635.792 401.086C635.812 402.215 635.997 405.377 636.087 409.165" fill="#80B6C5"/>
<path d="M553.267 314.234L512.815 281.216L522.829 211.532L538.296 211.443L536.086 271.851L571.877 289.291L553.267 314.234" fill="#80B6C5"/>
<path d="M569.825 363.769L557.179 360.975L513.813 557.742L526.459 560.536L569.825 363.769" fill="#6F644F"/>
<path d="M496.821 502.68L488.623 539.879C480.84 575.19 511.75 597.189 511.75 597.189C511.75 597.189 549.035 590.259 556.818 554.948L565.015 517.749L496.821 502.68Z" fill="#4E5158"/>
<path d="M549.074 330.457C547.973 346.802 559.158 358.215 563.584 362.06C569.262 360.456 584.14 354.884 590.009 339.503L549.074 330.457ZM561.099 373.273L559.3 371.991C558.224 371.229 533.053 352.916 539.64 323.027L540.763 317.931L602.807 331.641L601.683 336.738C595.097 366.626 564.566 372.629 563.271 372.869L561.099 373.273" fill="#4E5158"/>
<path d="M569.825 363.769L557.179 360.974L551.419 387.108L564.064 389.902L569.825 363.769" fill="#4E5158"/>
<path d="M587.656 357.643L581.891 359.952L576.892 357.714L575.88 358.533L576.837 359.822L572.157 359.152L568.886 361.161L568.526 366.26L571.467 370.645L576.562 370.466L581.702 367.247L589.73 364.427L587.656 357.643" fill="#DFBC9C"/>
<path d="M580.994 356.125L613.336 335.614L606.755 285.473L640.87 312.149L635.648 356.518L585.387 367.425L580.994 356.125" fill="#80B6C5"/>
</g>
<defs>
<clipPath id="clip0">
<rect width="749" height="600" fill="white"/>
</clipPath>
</defs>
</svg>
