<svg width="64" height="74" viewBox="0 0 64 74" fill="none" xmlns="http://www.w3.org/2000/svg">
<path d="M63.9739 18.7786V44.9078C63.9739 55.2784 55.5339 63.6863 45.1237 63.6863H43.217L33.4805 73.3795C33.0992 73.7594 32.5717 74 31.987 74C31.4467 74 30.9574 73.8037 30.5824 73.4745L30.4172 73.3099L30.4108 73.3036L20.7569 63.6863H18.8439C8.44003 63.6863 0 55.2784 0 44.9078V18.7786C0 8.40794 8.44003 0 18.8503 0H45.1237C55.5339 0 63.9739 8.40794 63.9739 18.7786Z" fill="#37C77F"/>
<path d="M28.3684 43.8957C28.6851 42.9232 28.1529 41.8735 27.1814 41.5552L27.1319 41.5392C26.1616 41.2217 25.1177 41.7477 24.7937 42.7105L21.8012 51.8123L25.3251 53.1528L28.3684 43.8957Z" fill="white"/>
<path d="M21.3361 41.2204C21.6529 40.2479 21.1206 39.1981 20.1491 38.8799L20.0996 38.8639C19.1244 38.5447 18.0744 39.0772 17.7561 40.0494L14.7677 49.1369L18.2915 50.4772L21.3361 41.2204Z" fill="white"/>
<path d="M35.4034 46.576C35.7201 45.6035 35.188 44.5539 34.2164 44.2356L34.1669 44.2195C33.1915 43.9002 32.1418 44.433 31.8234 45.4049L28.8364 54.4882L32.3611 55.8291L35.4034 46.576Z" fill="white"/>
<path d="M0 20.2851V46.971L7.62612 46.9976V20.2844L0 20.2851Z" fill="white"/>
<path d="M49.2217 20.2843L46.3487 12.8416L35.4964 12.8395L30.8516 21.9849L51.4254 47.003H52.6476V20.2843H49.2217Z" fill="white"/>
<path d="M31.2909 12.8386L18.2459 12.836L14.8559 20.2835L11.3751 20.2839V47.4492L14.1931 38.8799C15.1541 35.9459 18.326 34.3381 21.2619 35.2984L21.3125 35.3147C22.767 35.7912 23.8946 36.8089 24.5472 38.0707C25.7081 37.6247 27.023 37.5584 28.294 37.9739L28.3446 37.9902C29.801 38.4674 30.9296 39.4869 31.582 40.7511C32.7429 40.3051 34.0577 40.2387 35.3289 40.6542L35.3795 40.6706C38.3192 41.6336 39.9269 44.8055 38.9671 47.7424L38.9661 47.7456L35.8697 57.1637L47.7957 47.886L26.3826 22.503L31.2909 12.8386Z" fill="white"/>
<path d="M56.3966 20.2843H64V47.003H56.3966V20.2843Z" fill="white"/>
</svg>
